<?xml version="1.0" standalone="no"?>
<!DOCTYPE svg PUBLIC "-//W3C//DTD SVG 20010904//EN"
 "http://www.w3.org/TR/2001/REC-SVG-20010904/DTD/svg10.dtd">
<svg version="1.0" xmlns="http://www.w3.org/2000/svg"
 width="157.000000pt" height="157.000000pt" viewBox="0 0 157.000000 157.000000"
 preserveAspectRatio="xMidYMid meet">
<metadata>
Created by potrace 1.11, written by Peter Selinger 2001-2013
</metadata>
<g transform="translate(0.000000,157.000000) scale(0.100000,-0.100000)"
fill="#000000" stroke="none">
<path d="M714 1559 c-416 -37 -723 -383 -708 -797 4 -132 18 -193 68 -306 100
-225 357 -415 597 -441 30 -4 60 -8 67 -10 9 -4 12 89 12 441 l0 445 28 -3 27
-3 2 -425 c1 -234 2 -431 3 -437 0 -19 65 -16 156 7 344 88 582 384 587 729 2
116 -7 182 -34 264 -99 295 -352 501 -654 533 -27 3 -54 6 -60 8 -5 1 -47 -1
-91 -5z m251 -154 c110 -31 239 -119 318 -215 174 -212 191 -530 39 -759 -48
-72 -135 -157 -206 -200 -62 -37 -175 -81 -209 -81 l-23 0 1 365 c1 201 4 367
6 369 3 3 54 6 115 7 131 2 180 20 230 86 28 37 52 108 41 119 -4 4 -651 7
-936 4 l-64 0 7 -41 c9 -54 50 -112 101 -141 34 -20 57 -23 163 -26 l122 -4 0
-77 c1 -118 1 -623 0 -648 0 -22 -1 -22 -52 -7 -125 36 -254 115 -326 200
-271 321 -187 789 178 997 65 37 164 68 239 74 36 3 67 6 68 8 6 4 143 -17
188 -30z"/>
</g>
</svg>
